# xmcd CD database file
#
# Track frame offsets:
#	150
#	22317
#	36310
#	51949
#	73820
#	91022
#	113761
#	126645
#	144523
#	157973
#	173659
#	193003
#	205280
#
# Disc length: 2880 seconds
#
# Revision: 0
# Processed by: cddbd v1.4PL0 Copyright (c) Steve Scherf et al.
# Submitted via: CDex 1.40Release
#
DISCID=bf0b3e0d
DTITLE=B.B.King - A christmas celebration of hope
DYEAR=1900
DGENRE=Blues
TTITLE0=Please come home for christmas
TTITLE1=Lonesome christmas
TTITLE2=Back door santa
TTITLE3=Christmas in heaven
TTITLE4=I'll be home for christmas
TTITLE5=To someone that I love
TTITLE6=Christmas celebration
TTITLE7=Merry christmas baby
TTITLE8=Christmas love
TTITLE9=Blue decorations
TTITLE10=Christmas comes but once a year
TTITLE11=Bringing in a brand new year
TTITLE12=Auld lang syne
EXTD=ID3G: 0
EXTT0=
EXTT1=
EXTT2=
EXTT3=
EXTT4=
EXTT5=
EXTT6=
EXTT7=
EXTT8=
EXTT9=
EXTT10=
EXTT11=
EXTT12=
PLAYORDER=
